<?xml version="1.0" encoding="utf-8"?>
<!-- Generator: Adobe Illustrator 16.0.0, SVG Export Plug-In . SVG Version: 6.00 Build 0)  -->
<!DOCTYPE svg PUBLIC "-//W3C//DTD SVG 1.1//EN" "http://www.w3.org/Graphics/SVG/1.1/DTD/svg11.dtd">
<svg version="1.1" id="Calque_1" xmlns="http://www.w3.org/2000/svg" xmlns:xlink="http://www.w3.org/1999/xlink" x="0px" y="0px"
	 width="100px" height="100px" viewBox="0 0 200.643 197.69" enable-background="new 0 0 200.643 197.69"
	 xml:space="preserve">
<g>
	<path d="M30.251,161.396l1.196-4.736c3.891,0.992,6.856,2.779,8.899,5.358c2.042,2.58,3.063,5.733,3.063,9.46
		c0,3.857-0.785,6.995-2.356,9.412c-1.57,2.417-3.845,4.256-6.823,5.518s-6.177,1.893-9.595,1.893c-3.727,0-6.979-0.713-9.754-2.137
		c-2.774-1.424-4.883-3.45-6.322-6.079c-1.441-2.628-2.161-5.521-2.161-8.679c0-3.581,0.912-6.592,2.734-9.033
		c1.823-2.441,4.387-4.143,7.69-5.104l1.099,4.664c-2.604,0.83-4.5,2.034-5.688,3.613c-1.188,1.578-1.782,3.564-1.782,5.957
		c0,2.75,0.659,5.049,1.978,6.896s3.088,3.146,5.311,3.895c2.221,0.748,4.513,1.123,6.872,1.123c3.044,0,5.7-0.443,7.972-1.331
		c2.27-0.887,3.967-2.267,5.09-4.138c1.123-1.872,1.685-3.898,1.685-6.08c0-2.652-0.765-4.898-2.295-6.738
		C35.533,163.293,33.263,162.047,30.251,161.396z" fill="white"/>
	<path d="M42.8,149.905L7.009,136.16v-5.103L42.8,116.409v5.396l-10.84,4.175v14.966l10.84,3.931V149.905z M28.103,139.578v-12.134
		l-9.912,3.735c-3.011,1.14-5.484,1.986-7.422,2.539c2.295,0.456,4.574,1.099,6.836,1.929L28.103,139.578z" fill="white"/>
	<path d="M42.8,107.824H7.009v-4.859l28.101-18.799H7.009v-4.541H42.8v4.858l-28.125,18.8H42.8V107.824z" fill="white"/>
	<path d="M42.8,70.747L7.009,57.002v-5.103L42.8,37.251v5.396l-10.84,4.174v14.966l10.84,3.931V70.747z M28.103,60.42V48.286
		l-9.912,3.736c-3.011,1.139-5.484,1.985-7.422,2.538c2.295,0.456,4.574,1.099,6.836,1.929L28.103,60.42z" fill="white"/>
	<path d="M42.8,28.812H7.009v-4.736h31.567V6.448H42.8V28.812z" fill="white"/>
</g>
<rect x="49.609" y="51.897" fill="none" width="147.704" height="93.724"/>
<text transform="matrix(1 0 0 1 56.9497 137.6563)" font-family="'Roboto', 'sans-serif'" font-size="110" letter-spacing="10" fill="white">32</text>
<rect x="52" width="5.186" height="197.69" fill="white"/>
</svg>
